<?xml version="1.0" encoding="UTF-8" standalone="no"?>
<!DOCTYPE svg PUBLIC "-//W3C//DTD SVG 1.1//EN" "http://www.w3.org/Graphics/SVG/1.1/DTD/svg11.dtd">
<svg width="100%" height="100%" viewBox="0 0 2564 1421" version="1.1" xmlns="http://www.w3.org/2000/svg" xmlns:xlink="http://www.w3.org/1999/xlink" xml:space="preserve" xmlns:serif="http://www.serif.com/" style="fill-rule:evenodd;clip-rule:evenodd;stroke-miterlimit:10;">
    <g transform="matrix(1,0,0,1,-801.388018,-1543.483852)">
        <g transform="matrix(4.166667,0,0,4.166667,0,0)">
            <g>
                <path d="M359.643,513.924L277.209,513.924L277.209,541.773L359.643,541.773L359.643,513.924ZM359.643,458.227L277.209,458.227L277.209,486.076L359.643,486.076L359.643,458.227ZM249.36,430.377L388.604,430.377L388.604,486.076L360.756,486.076L360.756,513.924L388.604,513.924L388.604,569.623L249.36,569.623L249.36,430.377Z" style="fill:white;fill-rule:nonzero;"/>
                <g transform="matrix(1,0,0,1,472.1514,458.2269)">
                    <path d="M0,83.546L83.547,83.546L83.547,111.396L-27.849,111.396L-27.849,-27.85L0,-27.85L0,83.546Z" style="fill:white;fill-rule:nonzero;"/>
                </g>
                <path d="M721.678,458.227L639.244,458.227L639.244,541.773L721.678,541.773L721.678,458.227ZM722.791,458.227L750.64,458.227L750.64,541.773L722.791,541.773L722.791,569.623L611.396,569.623L611.396,430.377L722.791,430.377L722.791,458.227Z" style="fill:white;fill-rule:nonzero;"/>
                <g transform="matrix(-1,0,0,1,1000.001,0)">
                    <rect x="210.445" y="388.547" width="579.111" height="222.906" style="fill:none;stroke:white;stroke-width:2px;"/>
                </g>
                <g transform="matrix(1,0,0,1,602.1461,605.5763)">
                    <path d="M0,43.687L-198.606,61.924C-212.752,63.223 -225.272,52.809 -226.571,38.663L-227.553,27.964C-228.852,13.819 -218.438,1.299 -204.292,0L-5.686,-18.237C8.459,-19.536 20.98,-9.122 22.279,5.024L23.261,15.722C24.56,29.868 14.146,42.388 0,43.687" style="fill:rgb(82,186,95);fill-rule:nonzero;"/>
                </g>
                <g transform="matrix(1,0,0,1,399.6068,604.7666)">
                    <path d="M0,62.418L-5.593,1.512L10.871,0L15.242,47.6L38.701,45.445L39.923,58.752L0,62.418Z" style="fill:white;fill-rule:nonzero;"/>
                </g>
                <g transform="matrix(1,0,0,1,474.3725,636.3207)">
                    <path d="M0,-11.184C-0.385,-12.239 -0.925,-13.751 -1.622,-15.724C-2.317,-17.696 -3.022,-19.739 -3.732,-21.853C-4.442,-23.967 -5.003,-25.694 -5.412,-27.032C-5.515,-25.647 -5.714,-23.909 -6.009,-21.816C-6.305,-19.724 -6.604,-17.661 -6.903,-15.626C-7.203,-13.59 -7.462,-11.876 -7.678,-10.479L-9.405,-0.256L3.561,-1.447L0,-11.184ZM12.245,22.874L8.21,11.717L-11.581,13.535L-13.602,25.248L-31.686,26.908L-17.427,-36.08L4.496,-38.092L30.245,21.221L12.245,22.874Z" style="fill:white;fill-rule:nonzero;"/>
                </g>
                <g transform="matrix(1,0,0,1,525.3071,620.2909)">
                    <path d="M0,9.63L1.175,22.426L6.976,21.894C9.817,21.633 11.753,20.839 12.778,19.511C13.803,18.185 14.229,16.582 14.057,14.705C13.905,13.057 13.202,11.645 11.947,10.469C10.692,9.293 8.53,8.847 5.459,9.129L0,9.63ZM3.843,-2.851C6.572,-3.102 8.438,-3.847 9.443,-5.087C10.448,-6.326 10.877,-7.741 10.73,-9.334C10.418,-12.746 7.673,-14.214 2.499,-13.739L-2.107,-13.316L-1.104,-2.397L3.843,-2.851ZM1.525,-26.209C10.34,-27.018 16.744,-26.287 20.738,-24.016C24.732,-21.745 26.953,-18.164 27.402,-13.273C27.647,-10.599 27.372,-8.294 26.575,-6.359C25.776,-4.422 24.704,-2.845 23.353,-1.633C22.002,-0.418 20.577,0.458 19.078,0.998L19.117,1.424C20.803,1.67 22.514,2.201 24.253,3.016C25.99,3.833 27.502,5.143 28.785,6.943C30.069,8.748 30.86,11.27 31.158,14.512C31.665,20.028 29.987,24.569 26.129,28.135C22.27,31.701 16.757,33.813 9.592,34.471L-14.123,36.648L-19.716,-24.259L1.525,-26.209Z" style="fill:white;fill-rule:nonzero;"/>
                </g>
                <g transform="matrix(1,0,0,1,606.8178,609.5552)">
                    <path d="M0,19.935C0.303,23.234 -0.25,26.439 -1.655,29.55C-3.062,32.662 -5.429,35.302 -8.756,37.47C-12.085,39.641 -16.535,40.981 -22.107,41.493C-24.895,41.748 -27.338,41.844 -29.437,41.778C-31.537,41.712 -33.521,41.48 -35.393,41.08C-37.266,40.678 -39.21,40.11 -41.227,39.377L-42.573,24.705C-39.125,26.052 -35.682,27.012 -32.244,27.584C-28.809,28.159 -25.726,28.319 -22.995,28.068C-20.552,27.843 -18.8,27.253 -17.739,26.296C-16.682,25.337 -16.211,24.206 -16.331,22.897C-16.478,21.306 -17.435,20.088 -19.203,19.247C-20.973,18.408 -23.93,17.288 -28.071,15.889C-31.218,14.746 -33.969,13.494 -36.331,12.131C-38.691,10.772 -40.575,9.009 -41.979,6.842C-43.381,4.679 -44.241,1.863 -44.561,-1.607C-44.921,-5.532 -44.255,-8.904 -42.563,-11.727C-40.875,-14.549 -38.37,-16.785 -35.052,-18.438C-31.733,-20.089 -27.801,-21.126 -23.25,-21.544C-19.271,-21.909 -15.647,-21.797 -12.381,-21.208C-9.116,-20.618 -6.18,-19.871 -3.572,-18.963L-7.437,-5.791C-10.164,-6.745 -12.826,-7.46 -15.421,-7.94C-18.017,-8.419 -20.396,-8.558 -22.557,-8.36C-24.661,-8.167 -26.177,-7.654 -27.104,-6.824C-28.03,-5.993 -28.442,-5.008 -28.338,-3.872C-28.249,-2.904 -27.802,-2.085 -26.993,-1.415C-26.187,-0.742 -24.875,-0.045 -23.06,0.675C-21.244,1.4 -18.768,2.303 -15.628,3.392C-12.551,4.429 -9.902,5.633 -7.683,7.006C-5.464,8.38 -3.701,10.081 -2.396,12.112C-1.092,14.142 -0.293,16.751 0,19.935" style="fill:white;fill-rule:nonzero;"/>
                </g>
                <g transform="matrix(1,0,0,1,534.8671,666.4622)">
                    <path d="M0,14.054L6.35,18.484L20.831,10.374L-16.743,-15.84L-14.021,29.894L0.46,21.783L0,14.054Z" style="fill:none;fill-rule:nonzero;stroke:rgb(192,170,100);stroke-width:3px;"/>
                </g>
            </g>
            <g transform="matrix(-1,0,0,1,420.888,-222.906)">
                <rect x="202.383" y="603.392" width="16.122" height="16.122" style="fill:rgb(35,31,32);stroke:white;stroke-width:2px;"/>
            </g>
            <g transform="matrix(-1,0,0,1,1579.112,-222.906)">
                <rect x="781.495" y="603.392" width="16.122" height="16.122" style="fill:rgb(35,31,32);stroke:white;stroke-width:2px;"/>
            </g>
            <g transform="matrix(-1,0,0,1,420.888,222.906)">
                <rect x="202.383" y="380.486" width="16.122" height="16.122" style="fill:rgb(35,31,32);stroke:white;stroke-width:2px;"/>
            </g>
            <g transform="matrix(-1,0,0,1,1579.112,222.906)">
                <rect x="781.495" y="380.486" width="16.122" height="16.122" style="fill:rgb(35,31,32);stroke:white;stroke-width:2px;"/>
            </g>
        </g>
    </g>
</svg>
