<svg width="504" height="504" viewBox="0 0 504 504" fill="none" xmlns="http://www.w3.org/2000/svg">
<g clip-path="url(#clip0_5_4902)">
<rect width="503.5" height="503.5" fill="url(#paint0_linear_5_4902)"/>
<mask id="path-1-inside-1_5_4902" fill="white">
<path d="M0 0H503.5V503.5H0V0Z"/>
</mask>
<path d="M0 0V-2H-2V0H0ZM503.5 0H505.5V-2H503.5V0ZM503.5 503.5V505.5H505.5V503.5H503.5ZM0 503.5H-2V505.5H0V503.5ZM0 0V2H503.5V0V-2H0V0ZM503.5 0H501.5V503.5H503.5H505.5V0H503.5ZM503.5 503.5V501.5H0V503.5V505.5H503.5V503.5ZM0 503.5H2V0H0H-2V503.5H0Z" fill="#00FF66" fill-opacity="0.3" mask="url(#path-1-inside-1_5_4902)"/>
<mask id="path-3-inside-2_5_4902" fill="white">
<path d="M32 32H471.5V471.5H32V32Z"/>
</mask>
<path d="M32 32V31H31V32H32ZM471.5 32H472.5V31H471.5V32ZM471.5 471.5V472.5H472.5V471.5H471.5ZM32 471.5H31V472.5H32V471.5ZM32 32V33H471.5V32V31H32V32ZM471.5 32H470.5V471.5H471.5H472.5V32H471.5ZM471.5 471.5V470.5H32V471.5V472.5H471.5V471.5ZM32 471.5H33V32H32H31V471.5H32Z" fill="#00FF66" fill-opacity="0.2" mask="url(#path-3-inside-2_5_4902)"/>
<path d="M188.71 239.88H151.652V252.399H188.71V239.88ZM188.71 214.841H151.652V227.361H188.71V214.841ZM139.133 202.321H201.729V227.361H189.21V239.88H201.729V264.919H139.133V202.321Z" fill="white"/>
<path d="M239.289 252.399H276.847V264.919H226.77V202.321H239.289V252.399Z" fill="white"/>
<path d="M351.464 214.841H314.406V252.399H351.464V214.841ZM351.964 214.841H364.483V252.399H351.964V264.919H301.887V202.321H351.964V214.841Z" fill="white"/>
<path d="M121.641 183.517H381.979V283.723H121.641V183.517Z" stroke="white" stroke-width="0.899093" stroke-miterlimit="10"/>
<path d="M297.728 300.721L208.445 308.919C202.086 309.503 196.457 304.822 195.873 298.462L195.432 293.653C194.848 287.294 199.53 281.666 205.889 281.082L295.172 272.883C301.53 272.299 307.159 276.981 307.743 283.34L308.185 288.149C308.768 294.509 304.087 300.137 297.728 300.721Z" fill="#52BA5F"/>
<path d="M206.676 308.777L204.162 281.397L211.563 280.717L213.528 302.116L224.074 301.147L224.624 307.129L206.676 308.777Z" fill="white"/>
<path d="M240.287 289.875C240.114 289.4 239.871 288.721 239.558 287.834C239.246 286.947 238.929 286.029 238.61 285.079C238.29 284.128 238.038 283.352 237.854 282.75C237.808 283.373 237.719 284.154 237.586 285.095C237.453 286.036 237.318 286.963 237.184 287.878C237.049 288.793 236.933 289.564 236.836 290.192L236.059 294.787L241.888 294.252L240.287 289.875ZM245.792 305.185L243.978 300.17L235.081 300.987L234.173 306.253L226.043 306.999L232.453 278.683L242.308 277.778L253.884 304.442L245.792 305.185Z" fill="white"/>
<path d="M263.186 292.026L263.714 297.778L266.322 297.539C267.599 297.421 268.469 297.065 268.93 296.468C269.391 295.871 269.582 295.151 269.505 294.307C269.436 293.566 269.12 292.931 268.556 292.403C267.992 291.874 267.02 291.674 265.64 291.8L263.186 292.026ZM264.913 286.415C266.14 286.302 266.979 285.967 267.431 285.41C267.882 284.853 268.075 284.217 268.009 283.5C267.869 281.967 266.635 281.307 264.309 281.52L262.238 281.71L262.689 286.619L264.913 286.415ZM263.871 275.914C267.834 275.551 270.713 275.879 272.508 276.9C274.304 277.921 275.302 279.531 275.504 281.73C275.614 282.932 275.491 283.968 275.132 284.838C274.773 285.709 274.291 286.417 273.684 286.962C273.076 287.509 272.436 287.902 271.762 288.145L271.779 288.337C272.537 288.447 273.307 288.686 274.088 289.052C274.869 289.42 275.549 290.008 276.126 290.818C276.703 291.629 277.059 292.763 277.192 294.22C277.42 296.7 276.666 298.741 274.932 300.344C273.197 301.948 270.719 302.897 267.498 303.193L256.837 304.171L254.322 276.791L263.871 275.914Z" fill="white"/>
<path d="M299.829 291.832C299.965 293.315 299.716 294.756 299.085 296.154C298.452 297.553 297.388 298.74 295.893 299.715C294.396 300.69 292.395 301.293 289.891 301.523C288.637 301.638 287.539 301.681 286.595 301.651C285.651 301.621 284.759 301.517 283.918 301.337C283.076 301.157 282.202 300.901 281.295 300.572L280.69 293.976C282.24 294.582 283.788 295.013 285.334 295.27C286.878 295.529 288.264 295.601 289.491 295.488C290.59 295.387 291.377 295.122 291.854 294.691C292.329 294.26 292.541 293.752 292.487 293.163C292.421 292.448 291.991 291.901 291.196 291.522C290.4 291.145 289.071 290.642 287.21 290.013C285.795 289.499 284.558 288.936 283.496 288.323C282.435 287.713 281.588 286.92 280.957 285.946C280.327 284.973 279.94 283.708 279.796 282.148C279.635 280.383 279.934 278.867 280.695 277.598C281.454 276.33 282.58 275.324 284.071 274.581C285.563 273.839 287.331 273.373 289.377 273.185C291.166 273.021 292.795 273.071 294.263 273.336C295.731 273.601 297.051 273.937 298.223 274.345L296.485 280.267C295.26 279.838 294.063 279.516 292.896 279.301C291.729 279.085 290.66 279.023 289.688 279.112C288.742 279.199 288.061 279.429 287.644 279.802C287.228 280.176 287.043 280.619 287.089 281.129C287.129 281.565 287.33 281.933 287.694 282.234C288.056 282.536 288.646 282.85 289.462 283.173C290.279 283.499 291.392 283.905 292.803 284.395C294.186 284.861 295.377 285.402 296.375 286.02C297.372 286.637 298.165 287.402 298.752 288.315C299.338 289.228 299.697 290.4 299.829 291.832Z" fill="white"/>
<path d="M267.482 314.77L270.336 316.762L276.846 313.116L259.955 301.332L261.179 321.891L267.689 318.245L267.482 314.77Z" stroke="#C0AA64" stroke-width="1.34864" stroke-miterlimit="10"/>
<path d="M118.016 179.893H125.264V187.141H118.016V179.893Z" fill="#231F20" stroke="white" stroke-width="0.899093" stroke-miterlimit="10"/>
<path d="M378.354 179.893H385.602V187.141H378.354V179.893Z" fill="#231F20" stroke="white" stroke-width="0.899093" stroke-miterlimit="10"/>
<path d="M118.016 280.099H125.264V287.347H118.016V280.099Z" fill="#231F20" stroke="white" stroke-width="0.899093" stroke-miterlimit="10"/>
<path d="M378.354 280.099H385.602V287.347H378.354V280.099Z" fill="#231F20" stroke="white" stroke-width="0.899093" stroke-miterlimit="10"/>
</g>
<defs>
<linearGradient id="paint0_linear_5_4902" x1="0" y1="0" x2="503.5" y2="503.5" gradientUnits="userSpaceOnUse">
<stop stop-color="#00FF66" stop-opacity="0.2"/>
<stop offset="1" stop-opacity="0"/>
</linearGradient>
<clipPath id="clip0_5_4902">
<rect width="503.5" height="503.5" fill="white"/>
</clipPath>
</defs>
</svg>
